<svg width="23" height="26" viewBox="0 0 23 26" fill="none" xmlns="http://www.w3.org/2000/svg">
<path d="M0.239014 22.7293C0.239014 24 1.29394 25.031 2.5942 25.031H19.8655C21.1658 25.031 22.2207 24 22.2207 22.7293V9.68638H0.239014V22.7293ZM15.9402 13.3307C15.9402 13.0142 16.2052 12.7553 16.529 12.7553H18.4917C18.8155 12.7553 19.0805 13.0142 19.0805 13.3307V15.2488C19.0805 15.5653 18.8155 15.8242 18.4917 15.8242H16.529C16.2052 15.8242 15.9402 15.5653 15.9402 15.2488V13.3307ZM15.9402 19.4686C15.9402 19.1521 16.2052 18.8932 16.529 18.8932H18.4917C18.8155 18.8932 19.0805 19.1521 19.0805 19.4686V21.3867C19.0805 21.7031 18.8155 21.9621 18.4917 21.9621H16.529C16.2052 21.9621 15.9402 21.7031 15.9402 21.3867V19.4686ZM9.65975 13.3307C9.65975 13.0142 9.9247 12.7553 10.2485 12.7553H12.2112C12.535 12.7553 12.8 13.0142 12.8 13.3307V15.2488C12.8 15.5653 12.535 15.8242 12.2112 15.8242H10.2485C9.9247 15.8242 9.65975 15.5653 9.65975 15.2488V13.3307ZM9.65975 19.4686C9.65975 19.1521 9.9247 18.8932 10.2485 18.8932H12.2112C12.535 18.8932 12.8 19.1521 12.8 19.4686V21.3867C12.8 21.7031 12.535 21.9621 12.2112 21.9621H10.2485C9.9247 21.9621 9.65975 21.7031 9.65975 21.3867V19.4686ZM3.37926 13.3307C3.37926 13.0142 3.64422 12.7553 3.96805 12.7553H5.93071C6.25454 12.7553 6.5195 13.0142 6.5195 13.3307V15.2488C6.5195 15.5653 6.25454 15.8242 5.93071 15.8242H3.96805C3.64422 15.8242 3.37926 15.5653 3.37926 15.2488V13.3307ZM3.37926 19.4686C3.37926 19.1521 3.64422 18.8932 3.96805 18.8932H5.93071C6.25454 18.8932 6.5195 19.1521 6.5195 19.4686V21.3867C6.5195 21.7031 6.25454 21.9621 5.93071 21.9621H3.96805C3.64422 21.9621 3.37926 21.7031 3.37926 21.3867V19.4686ZM19.8655 3.54854H17.5104V1.24685C17.5104 0.824868 17.1571 0.479614 16.7253 0.479614H15.1552C14.7234 0.479614 14.3701 0.824868 14.3701 1.24685V3.54854H8.08962V1.24685C8.08962 0.824868 7.73635 0.479614 7.30456 0.479614H5.73444C5.30266 0.479614 4.94938 0.824868 4.94938 1.24685V3.54854H2.5942C1.29394 3.54854 0.239014 4.5795 0.239014 5.85023V8.15192H22.2207V5.85023C22.2207 4.5795 21.1658 3.54854 19.8655 3.54854Z" fill="#7166F9"/>
</svg>
