<svg width="25" height="25" viewBox="0 0 25 25" fill="none" xmlns="http://www.w3.org/2000/svg">
<path d="M16.4566 16.6374H18.2653C18.5668 16.6374 18.8683 16.2405 18.8683 15.8435V7.50834C18.8683 7.11143 18.5668 6.71451 18.2653 6.71451H16.4566C16.1551 6.71451 15.8536 7.11143 15.8536 7.50834V15.8435C15.8536 16.2405 16.1551 16.6374 16.4566 16.6374ZM20.9785 16.6374H22.7873C23.0887 16.6374 23.3902 16.2405 23.3902 15.8435V1.55463C23.3902 1.15772 23.0887 0.760803 22.7873 0.760803H20.9785C20.677 0.760803 20.3756 1.15772 20.3756 1.55463V15.8435C20.3756 16.2405 20.677 16.6374 20.9785 16.6374ZM7.41265 16.6374H9.22143C9.5229 16.6374 9.82436 16.2405 9.82436 15.8435V11.4775C9.82436 11.0806 9.5229 10.6837 9.22143 10.6837H7.41265C7.11119 10.6837 6.80972 11.0806 6.80972 11.4775V15.8435C6.80972 16.2405 7.11119 16.6374 7.41265 16.6374ZM11.9346 16.6374H13.7434C14.0448 16.6374 14.3463 16.2405 14.3463 15.8435V3.5392C14.3463 3.14229 14.0448 2.74537 13.7434 2.74537H11.9346C11.6331 2.74537 11.3317 3.14229 11.3317 3.5392V15.8435C11.3317 16.2405 11.6331 16.6374 11.9346 16.6374ZM24.1439 20.6065H3.79509V1.75309C3.79509 1.20485 3.45783 0.760803 3.04143 0.760803H1.53412C1.11772 0.760803 0.780457 1.20485 0.780457 1.75309V22.5911C0.780457 23.6869 1.45545 24.5756 2.28777 24.5756H24.1439C24.5603 24.5756 24.8975 24.1316 24.8975 23.5834V21.5988C24.8975 21.0506 24.5603 20.6065 24.1439 20.6065Z" fill="#FDFDFD"/>
</svg>
