<svg width="32" height="32" viewBox="0 0 32 32" fill="none" xmlns="http://www.w3.org/2000/svg">
<g filter="url(#filter0_d_4_6)">
<path d="M15.6818 6.22623L8.00032 14.362V23.1428C8.00032 23.3701 8.07055 23.5882 8.19556 23.7489C8.32058 23.9097 8.49013 24 8.66693 24L13.3357 23.9845C13.512 23.9833 13.6807 23.8925 13.805 23.7319C13.9292 23.5712 13.999 23.3539 13.999 23.1272V17.9993C13.999 17.772 14.0693 17.5539 14.1943 17.3932C14.3193 17.2324 14.4888 17.1421 14.6656 17.1421H17.3321C17.5089 17.1421 17.6784 17.2324 17.8035 17.3932C17.9285 17.5539 17.9987 17.772 17.9987 17.9993V23.1235C17.9984 23.2363 18.0155 23.348 18.0489 23.4524C18.0822 23.5567 18.1313 23.6515 18.1932 23.7314C18.2551 23.8113 18.3287 23.8747 18.4097 23.9179C18.4908 23.9611 18.5776 23.9834 18.6653 23.9834L23.3325 24C23.5093 24 23.6788 23.9097 23.8038 23.7489C23.9289 23.5882 23.9991 23.3701 23.9991 23.1428V14.3561L16.3193 6.22623C16.229 6.13265 16.1165 6.08161 16.0005 6.08161C15.8846 6.08161 15.7721 6.13265 15.6818 6.22623ZM27.8155 11.756L24.3324 8.06394V0.642929C24.3324 0.472414 24.2797 0.308882 24.186 0.18831C24.0922 0.0677371 23.965 0 23.8324 0H21.4993C21.3667 0 21.2395 0.0677371 21.1457 0.18831C21.052 0.308882 20.9993 0.472414 20.9993 0.642929V4.53319L17.2692 0.586673C16.9112 0.207869 16.462 0.000757234 15.9984 0.000757234C15.5349 0.000757234 15.0857 0.207869 14.7277 0.586673L4.18144 11.756C4.13082 11.8098 4.08893 11.8759 4.05818 11.9505C4.02743 12.0251 4.00842 12.1068 4.00223 12.1909C3.99604 12.275 4.00279 12.3598 4.0221 12.4406C4.04142 12.5213 4.07291 12.5963 4.11478 12.6614L5.1772 14.3223C5.21896 14.3876 5.27033 14.4417 5.32835 14.4814C5.38638 14.5212 5.44994 14.5458 5.51538 14.5539C5.58082 14.562 5.64686 14.5535 5.70973 14.5287C5.77259 14.5039 5.83104 14.4635 5.88173 14.4097L15.6818 4.02956C15.7721 3.93597 15.8846 3.88494 16.0005 3.88494C16.1165 3.88494 16.229 3.93597 16.3193 4.02956L26.1198 14.4097C26.1704 14.4635 26.2287 14.504 26.2915 14.5288C26.3543 14.5537 26.4202 14.5624 26.4856 14.5544C26.551 14.5464 26.6145 14.522 26.6726 14.4824C26.7306 14.4429 26.782 14.389 26.8239 14.3239L27.8863 12.663C27.9281 12.5976 27.9595 12.5222 27.9786 12.4411C27.9976 12.36 28.0041 12.2749 27.9975 12.1906C27.9909 12.1063 27.9714 12.0245 27.9402 11.9499C27.909 11.8753 27.8666 11.8094 27.8155 11.756Z" fill="#7166F9"/>
<path d="M27.4541 12.1015L27.4518 12.0991L23.9687 8.40705L23.8324 8.26257V8.06394V0.642929C23.8324 0.574649 23.8118 0.524676 23.7947 0.5H21.537C21.5199 0.524676 21.4993 0.574649 21.4993 0.642929V4.53319V5.7901L20.6359 4.87664L16.9058 0.930124L16.9058 0.93009C16.6293 0.637552 16.3068 0.500757 15.9984 0.500757C15.6901 0.500757 15.3676 0.637552 15.0911 0.93009L4.54561 12.0986C4.54557 12.0986 4.54554 12.0987 4.5455 12.0987C4.54024 12.1043 4.53013 12.1176 4.52048 12.141C4.5108 12.1645 4.50335 12.194 4.50088 12.2276C4.49841 12.2612 4.50124 12.2944 4.50838 12.3242C4.51555 12.3542 4.52598 12.3765 4.53525 12.3908L4.53598 12.392L5.57115 14.0103L15.3182 3.68631L15.3219 3.68239L15.322 3.68241C15.4939 3.50417 15.7318 3.38494 16.0005 3.38494C16.2693 3.38494 16.5071 3.50417 16.6791 3.68241L16.6828 3.68628L16.6828 3.6863L26.4307 14.0107L27.465 12.3938L27.4541 12.1015ZM27.4541 12.1015C27.4591 12.1068 27.4692 12.1197 27.479 12.1431C27.4888 12.1664 27.4964 12.1958 27.499 12.2295C27.5016 12.2631 27.4989 12.2964 27.4919 12.3265C27.4848 12.3566 27.4744 12.379 27.4651 12.3936L27.4541 12.1015ZM18.4987 23.1247V23.1235V17.9993C18.4987 17.6745 18.3994 17.345 18.1982 17.0862C17.9947 16.8246 17.6879 16.6421 17.3321 16.6421H14.6656C14.3098 16.6421 14.003 16.8246 13.7996 17.0862C13.5984 17.345 13.499 17.6745 13.499 17.9993V23.1272C13.499 23.2566 13.4582 23.363 13.4095 23.4259C13.3863 23.4559 13.3656 23.4709 13.3528 23.4777C13.3412 23.484 13.3349 23.4844 13.3328 23.4845C13.3327 23.4845 13.3326 23.4845 13.3325 23.4845L8.66693 23.5C8.66683 23.5 8.66672 23.5 8.6666 23.5C8.66447 23.5 8.65822 23.4995 8.64689 23.4935C8.63426 23.4867 8.61353 23.4719 8.59027 23.442C8.54143 23.3792 8.50032 23.2726 8.50032 23.1428V14.5607L16.0005 6.61696L23.4991 14.5549V23.1428C23.4991 23.2726 23.458 23.3792 23.4091 23.442C23.3859 23.4719 23.3651 23.4867 23.3525 23.4935C23.3412 23.4995 23.335 23.5 23.3328 23.5C23.3327 23.5 23.3326 23.5 23.3325 23.5L18.6671 23.4834H18.6653C18.6636 23.4834 18.6573 23.4833 18.6452 23.4768C18.6323 23.4699 18.6115 23.4549 18.5884 23.425C18.5651 23.3951 18.5421 23.3533 18.5251 23.3C18.5081 23.2468 18.4986 23.187 18.4987 23.1247Z" stroke="black"/>
</g>
<defs>
<filter id="filter0_d_4_6" x="0" y="0" width="32" height="32" filterUnits="userSpaceOnUse" color-interpolation-filters="sRGB">
<feFlood flood-opacity="0" result="BackgroundImageFix"/>
<feColorMatrix in="SourceAlpha" type="matrix" values="0 0 0 0 0 0 0 0 0 0 0 0 0 0 0 0 0 0 127 0" result="hardAlpha"/>
<feOffset dy="4"/>
<feGaussianBlur stdDeviation="2"/>
<feComposite in2="hardAlpha" operator="out"/>
<feColorMatrix type="matrix" values="0 0 0 0 0 0 0 0 0 0 0 0 0 0 0 0 0 0 0.25 0"/>
<feBlend mode="normal" in2="BackgroundImageFix" result="effect1_dropShadow_4_6"/>
<feBlend mode="normal" in="SourceGraphic" in2="effect1_dropShadow_4_6" result="shape"/>
</filter>
</defs>
</svg>
