<svg width="25" height="25" viewBox="0 0 25 25" fill="none" xmlns="http://www.w3.org/2000/svg">
<path d="M12.8439 12.3344C16.6499 12.3344 19.7345 9.69667 19.7345 6.44208C19.7345 3.18748 16.6499 0.549744 12.8439 0.549744C9.0379 0.549744 5.95328 3.18748 5.95328 6.44208C5.95328 9.69667 9.0379 12.3344 12.8439 12.3344ZM17.6673 13.8075H16.7683C15.5732 14.277 14.2435 14.544 12.8439 14.544C11.4442 14.544 10.1199 14.277 8.91947 13.8075H8.02046C4.02607 13.8075 0.785339 16.5787 0.785339 19.9944V21.9094C0.785339 23.1293 1.94274 24.1191 3.36931 24.1191H22.3184C23.745 24.1191 24.9024 23.1293 24.9024 21.9094V19.9944C24.9024 16.5787 21.6617 13.8075 17.6673 13.8075Z" fill="#7166F9"/>
</svg>
