<svg width="25" height="24" viewBox="0 0 25 24" fill="none" xmlns="http://www.w3.org/2000/svg">
<path d="M24.2188 12.1847C24.2188 18.6208 18.7967 23.8357 12.1094 23.8357C5.42202 23.8357 0 18.6208 0 12.1847C0 5.7523 5.42202 0.53363 12.1094 0.53363C18.7967 0.53363 24.2188 5.7523 24.2188 12.1847ZM12.4343 4.38598C9.77334 4.38598 8.07617 5.4645 6.74346 7.38133C6.5708 7.62967 6.62856 7.96459 6.87603 8.14513L8.57031 9.38117C8.82446 9.5666 9.18657 9.52249 9.38403 9.28148C10.2563 8.21701 10.8544 7.59974 12.182 7.59974C13.1795 7.59974 14.4134 8.21743 14.4134 9.1481C14.4134 9.85168 13.8097 10.213 12.8248 10.7443C11.6762 11.3638 10.1562 12.1349 10.1562 14.0638V14.2518C10.1562 14.5631 10.4186 14.8155 10.7422 14.8155H13.4766C13.8001 14.8155 14.0625 14.5631 14.0625 14.2518V14.1891C14.0625 12.852 18.1243 12.7963 18.1243 9.17794C18.1243 6.45301 15.1866 4.38598 12.4343 4.38598ZM12.1094 16.037C10.8708 16.037 9.86328 17.0064 9.86328 18.1981C9.86328 19.3897 10.8708 20.3592 12.1094 20.3592C13.3479 20.3592 14.3555 19.3897 14.3555 18.1981C14.3555 17.0064 13.3479 16.037 12.1094 16.037Z" fill="#7166F9"/>
</svg>
