<svg width="24" height="23" viewBox="0 0 24 23" fill="none" xmlns="http://www.w3.org/2000/svg">
<path d="M23.6736 19.885L18.9998 15.4067C18.7889 15.2046 18.5029 15.0923 18.2029 15.0923H17.4388C18.7326 13.5067 19.5014 11.5124 19.5014 9.34284C19.5014 4.18182 15.137 0 9.75071 0C4.36438 0 0 4.18182 0 9.34284C0 14.5039 4.36438 18.6857 9.75071 18.6857C12.0149 18.6857 14.0963 17.949 15.7512 16.7093V17.4415C15.7512 17.7289 15.8683 18.0029 16.0793 18.2051L20.7531 22.6833C21.1937 23.1056 21.9063 23.1056 22.3423 22.6833L23.6689 21.4122C24.1096 20.9899 24.1096 20.3072 23.6736 19.885ZM9.75071 15.0923C6.43641 15.0923 3.75027 12.523 3.75027 9.34284C3.75027 6.16717 6.43172 3.5934 9.75071 3.5934C13.065 3.5934 15.7512 6.16268 15.7512 9.34284C15.7512 12.5185 13.0697 15.0923 9.75071 15.0923Z" fill="white"/>
</svg>
