<svg width="25" height="25" viewBox="0 0 25 25" fill="none" xmlns="http://www.w3.org/2000/svg">
<path d="M22.678 3.40619C23.5105 3.40619 24.1853 2.91155 24.1853 2.30138V1.56483C24.1853 0.954656 23.5105 0.460022 22.678 0.460022H1.57555C0.743076 0.460022 0.0682373 0.954656 0.0682373 1.56483V2.30138C0.0682373 2.91155 0.743076 3.40619 1.57555 3.40619C1.57555 7.59366 4.77961 11.1276 9.16502 12.2447C4.77961 13.3617 1.57555 16.8957 1.57555 21.0832C0.743076 21.0832 0.0682373 21.5778 0.0682373 22.188V22.9245C0.0682373 23.5347 0.743076 24.0294 1.57555 24.0294H22.678C23.5105 24.0294 24.1853 23.5347 24.1853 22.9245V22.188C24.1853 21.5778 23.5105 21.0832 22.678 21.0832C22.678 16.8957 19.4739 13.3617 15.0885 12.2447C19.4739 11.1276 22.678 7.59366 22.678 3.40619Z" fill="#7166F9"/>
</svg>
